<?xml version="1.0" standalone="no"?>
<!DOCTYPE svg PUBLIC "-//W3C//DTD SVG 20010904//EN"
 "http://www.w3.org/TR/2001/REC-SVG-20010904/DTD/svg10.dtd">
<svg version="1.0" xmlns="http://www.w3.org/2000/svg"
 width="512.000000pt" height="512.000000pt" viewBox="0 0 512.000000 512.000000"
 preserveAspectRatio="xMidYMid meet">
<metadata>
Created by potrace 1.11, written by Peter Selinger 2001-2013
</metadata>
<g transform="translate(0.000000,512.000000) scale(0.100000,-0.100000)"
fill="#000000" stroke="none">
<path d="M2430 4592 c-43 -2 -211 -25 -275 -37 -220 -42 -516 -164 -710 -293
-340 -227 -609 -550 -760 -912 -57 -135 -115 -333 -130 -440 -3 -25 -8 -52
-10 -60 -10 -39 -19 -188 -18 -315 3 -530 210 -1027 588 -1411 276 -280 623
-473 1005 -557 111 -24 138 -29 260 -42 107 -12 435 -5 460 10 3 2 25 6 50 9
262 35 576 161 824 329 659 447 999 1257 856 2044 -11 59 -29 140 -40 178 -11
39 -22 77 -24 85 -13 47 -70 189 -108 266 -112 226 -226 385 -402 559 -371
369 -866 579 -1386 588 -74 1 -155 1 -180 -1z m-90 -425 c0 -1 -313 -315 -696
-697 -777 -777 -707 -720 -662 -530 43 186 140 396 256 559 62 88 210 248 291
316 76 63 232 161 336 211 100 47 265 105 340 119 17 3 46 9 65 13 35 8 70 12
70 9z m535 -12 c346 -66 677 -257 912 -525 190 -216 332 -507 379 -775 2 -14
6 -36 8 -50 3 -14 2 -25 -1 -25 -3 0 -319 313 -702 697 -743 743 -704 699
-596 678z m423 -1051 l535 -536 -540 -540 -541 -541 1 1077 c0 592 2 1076 4
1076 3 0 246 -241 541 -536z m-938 -555 l0 -1081 -542 541 -542 542 540 540
c296 296 540 539 541 539 2 0 3 -487 3 -1081z m1816 -236 c-21 -148 -80 -331
-158 -488 -97 -194 -243 -380 -414 -523 -70 -59 -227 -159 -323 -207 -91 -45
-293 -118 -356 -128 -16 -3 -59 -10 -94 -17 -34 -6 -65 -9 -67 -7 -5 4 1405
1417 1413 1417 3 0 2 -21 -1 -47z m-2521 -670 c369 -369 677 -679 684 -687 12
-14 9 -15 -20 -10 -28 5 -97 19 -189 39 -49 11 -209 74 -292 115 -257 128
-473 320 -632 560 -107 162 -202 387 -233 550 -2 14 -8 43 -13 65 -14 61 -13
70 6 54 9 -8 319 -316 689 -686z"/>
</g>
</svg>
