<?xml version="1.0" standalone="no"?>
<!DOCTYPE svg PUBLIC "-//W3C//DTD SVG 20010904//EN"
 "http://www.w3.org/TR/2001/REC-SVG-20010904/DTD/svg10.dtd">
<svg version="1.0" xmlns="http://www.w3.org/2000/svg"
 width="512.000000pt" height="512.000000pt" viewBox="0 0 512.000000 512.000000"
 preserveAspectRatio="xMidYMid meet">
<metadata>
Created by potrace 1.11, written by Peter Selinger 2001-2013
</metadata>
<g transform="translate(0.000000,512.000000) scale(0.100000,-0.100000)"
fill="#000000" stroke="none">
<path d="M1293 4575 c-435 -77 -753 -447 -757 -880 -1 -138 7 -199 40 -300
110 -339 394 -578 749 -631 46 -7 206 -7 245 0 19 4 49 9 65 12 211 39 441
191 566 375 41 61 98 168 104 196 2 10 10 37 19 60 8 24 18 60 21 81 3 21 8
49 11 62 9 43 6 202 -6 275 -57 351 -333 649 -681 735 -103 26 -276 33 -376
15z m292 -241 c411 -86 646 -527 489 -916 -150 -368 -581 -527 -937 -345 -151
77 -276 225 -334 396 -23 66 -26 93 -26 201 -1 109 3 135 26 205 111 333 446
529 782 459z"/>
<path d="M3555 4579 c-22 -4 -53 -9 -70 -12 -47 -7 -184 -57 -234 -85 -416
-228 -592 -708 -422 -1147 77 -200 269 -407 454 -488 20 -10 52 -23 70 -31
169 -74 430 -77 628 -8 307 108 537 374 598 692 28 145 17 316 -30 459 -90
272 -323 505 -589 585 -129 40 -303 55 -405 35z m13 -904 c-1 -746 8 -677 -78
-651 -184 57 -327 176 -410 341 -57 113 -74 188 -73 320 0 92 5 123 27 190 76
222 242 384 460 446 33 10 64 18 67 18 4 1 7 -298 7 -664z m337 633 c276 -95
460 -366 449 -662 -10 -244 -145 -456 -365 -574 -58 -31 -148 -62 -181 -62
-17 0 -18 29 -18 665 l0 665 28 -6 c15 -3 54 -15 87 -26z"/>
<path d="M1314 2345 c-322 -48 -597 -266 -718 -569 -53 -132 -78 -337 -56
-457 5 -24 11 -57 13 -74 16 -89 75 -228 139 -325 54 -81 207 -221 299 -273
323 -182 722 -156 1014 68 226 173 356 436 356 722 1 561 -493 990 -1047 908z
m-244 -520 c-156 -156 -286 -283 -288 -280 -2 2 6 37 17 79 60 219 228 393
446 460 49 15 80 22 100 25 5 0 -118 -127 -275 -284z m585 256 c168 -49 319
-180 400 -346 28 -58 71 -195 60 -195 -5 0 -565 562 -565 567 0 5 5 4 105 -26z
m22 -416 l224 -225 -226 -227 -226 -227 -227 227 -227 227 225 225 c124 124
227 225 229 225 2 0 104 -101 228 -225z m-337 -888 c-9 -8 -115 24 -180 54
-193 90 -333 269 -375 479 -6 31 23 5 276 -247 156 -155 281 -284 279 -286z
m769 521 c-54 -242 -236 -437 -472 -505 -44 -13 -82 -22 -84 -20 -4 4 549 564
558 566 4 0 3 -18 -2 -41z"/>
<path d="M3534 2344 c-360 -57 -654 -329 -745 -689 -30 -121 -30 -313 0 -429
27 -101 76 -214 126 -291 47 -72 183 -211 242 -249 141 -88 241 -127 391 -153
67 -11 235 -5 317 12 171 35 329 120 449 239 105 104 151 168 201 281 55 122
79 242 77 390 -2 278 -126 529 -346 704 -90 71 -228 142 -321 165 -130 32
-270 39 -391 20z m46 -237 c0 -1 -128 -130 -285 -287 -312 -311 -306 -308
-249 -148 63 175 212 329 384 396 75 29 150 49 150 39z m286 -18 c172 -52 331
-179 406 -324 36 -69 83 -215 70 -215 -4 0 -133 126 -287 280 -154 154 -275
280 -268 280 6 0 42 -9 79 -21z m-298 -650 l0 -341 -171 171 -172 171 170 170
c93 93 170 170 171 170 1 0 1 -154 2 -341z m396 172 l169 -169 -171 -172 -172
-172 0 341 c0 187 1 341 3 341 1 0 78 -76 171 -169z m-388 -838 c-6 -7 -126
30 -183 56 -193 91 -331 267 -378 486 -5 24 50 -26 279 -255 157 -156 284
-285 282 -287z m754 488 c-70 -252 -263 -428 -530 -485 -16 -4 67 86 260 279
156 156 285 283 287 281 1 -1 -6 -35 -17 -75z"/>
</g>
</svg>
